# xmcd CD database file
#
# Track frame offsets:
#	150
#	13379
#	26757
#	43301
#	60527
#	74191
#	122084
#	138222
#	154480
#	182446
#	209519
#
# Disc length: 3372 seconds
#
# Revision: 0
# Processed by: cddbd v1.5.2PL0 Copyright (c) Steve Scherf et al.
# Submitted via: CDex 1.51
#
DISCID=ab0d2a0b
DTITLE=Gary Moore - Bad For You Baby
DYEAR=2008
DGENRE=Blues
TTITLE0=Bad For You Baby
TTITLE1=Down The Line
TTITLE2=Umbrella Man
TTITLE3=Holding On
TTITLE4=Walkin' Thru The Park
TTITLE5=I Love You More Than You'll Ever Know
TTITLE6=Mojo Boogie
TTITLE7=Someday Baby
TTITLE8=Did You Ever Feel Lonely?
TTITLE9=Preacher Man Blues
TTITLE10=Trouble Ain't For Behind
EXTD=YEAR: 2008
EXTT0=
EXTT1=
EXTT2=
EXTT3=
EXTT4=
EXTT5=
EXTT6=
EXTT7=
EXTT8=
EXTT9=
EXTT10=
PLAYORDER=
